<svg version="1.1" id="carenest-logo" xmlns="http://www.w3.org/2000/svg" 
     xmlns:xlink="http://www.w3.org/1999/xlink" x="0px" y="0px"
     viewBox="0 0 300 300" xml:space="preserve">
  <!-- Tło z delikatnym kołem -->
  <circle cx="150" cy="150" r="140" fill="#FDF6EC" stroke="#F1C40F" stroke-width="8"/>
  
  <!-- Stylizowane gniazdo -->
  <path d="M70,160 C110,110 190,110 230,160" transform="translate(0, -30)"  fill="none" stroke="#F1C40F" stroke-width="12" stroke-linecap="round"/>
  <!-- Sylwetki dzieci w gnieździe -->
  <g transform="translate(90,175) scale(1.9)" fill="#F1C40F">
    <!-- Głowa -->
    <circle cx="0" cy="-10" r="5"/>
    <!-- Ciało -->
    <ellipse cx="0" cy="5" rx="7" ry="10"/>
    <!-- Raczki (ramiona) -->
    <circle cx="-8" cy="2" r="2"/>
    <circle cx="8" cy="2" r="2"/>
  </g>
  
  <!-- Centralna sylwetka – powiększona -->
  <g transform="translate(150,170) scale(2.7)" fill="#F1C40F">
    <circle cx="0" cy="-10" r="5"/>
    <ellipse cx="0" cy="5" rx="7" ry="10"/>
    <circle cx="-8" cy="2" r="2"/>
    <circle cx="8" cy="2" r="2"/>
  </g>
  
  <g transform="translate(210,175) scale(1.9)" fill="#F1C40F">
    <circle cx="0" cy="-10" r="5"/>
    <ellipse cx="0" cy="5" rx="7" ry="10"/>
    <circle cx="-8" cy="2" r="2"/>
    <circle cx="8" cy="2" r="2"/>
  </g>
</svg>



